<svg xmlns="http://www.w3.org/2000/svg" xmlns:xlink="http://www.w3.org/1999/xlink" aria-hidden="true" role="img" width="256" height="256" preserveAspectRatio="xMidYMid meet" viewBox="0 0 256 256"><path fill="#F7DF1E" d="M0 0h256v256H0V0Z"/><path fill="#000" d="m67.59 215.47l19.34-11.81c3.73 6.58 7.14 12.14 15.32 12.14c7.84 0 12.8-3.07 12.8-15.06v-81.3h23.87v81.54c0 24.71-14.48 35.97-35.6 35.97c-19.08 0-30.14-9.88-35.74-21.48M152.65 213.43l19.34-11.19c5.08 8.31 11.64 14.47 23.29 14.47c9.78 0 15.98-4.89 15.98-11.64c0-8.11-6.41-10.99-17.14-15.72l-5.88-2.52c-16.98-7.23-28.24-16.32-28.24-35.48c0-17.66 13.45-31.14 34.48-31.14c14.98 0 25.76 5.21 33.53 18.82l-18.36 11.75c-4.03-7.23-8.39-10.09-15.17-10.09c-6.92 0-11.29 4.37-11.29 10.09c0 7.06 4.37 9.94 14.45 14.31l5.88 2.52c20.05 8.55 31.3 17.15 31.3 36.83c0 21.11-16.57 32.78-38.83 32.78c-21.78 0-35.84-10.36-42.66-23.94"/></svg>
