<svg xmlns="http://www.w3.org/2000/svg" viewBox="0 0 256 255" width="35.93" height="32">
  <defs>
    <linearGradient x1="12.959%" y1="12.039%" x2="79.639%" y2="78.201%" id="python-a">
      <stop stop-color="#387EB8" offset="0%"/>
      <stop stop-color="#366994" offset="100%"/>
    </linearGradient>
    <linearGradient x1="19.128%" y1="20.579%" x2="90.742%" y2="88.429%" id="python-b">
      <stop stop-color="#FFE052" offset="0%"/>
      <stop stop-color="#FFC331" offset="100%"/>
    </linearGradient>
  </defs>
  <g fill="none" fill-rule="evenodd">
    <path d="M126.916.211c-11.87.053-23.641 1.069-35.252 2.872-30.322 5.126-34.086 15.829-34.086 35.997v26.168h68.172v8.723H61.706c-19.943 0-36.415 11.938-42.878 35.432-7.198 25.495-7.576 41.413 0 67.628 5.575 19.201 16.719 35.432 36.662 35.432h20.677c19.602 0 24.537-9.388 24.537-21.008v-27.65c0-14.275 11.663-25.624 25.86-25.624h34.082c13.349 0 23.865-11.547 23.865-25.048V39.08c0-17.266-15.873-33.173-34.672-36.284C144.846 1.06 133.155.158 126.916.211zm-18.8 22.114c4.949 0 8.967 4.066 8.967 9.078 0 5.024-4.018 9.073-8.967 9.073-4.947 0-8.967-4.05-8.967-9.073 0-5.012 4.02-9.078 8.967-9.078z" fill="url(#python-a)"/>
    <path d="M256 153.334c0-31.01-25.354-35.724-25.354-35.724h-29.15s-12.06-.666-12.06 12.273v27.203s.886 24.408-23.926 24.408h-34.065c-17.017 0-24.537 16.078-24.537 16.078v68.587s-.726 14.654 28.315 18.598c10.748 1.349 20.725 1.968 29.832 1.843 27.423-.405 52.14-6.262 58.848-20.228 6.758-14.034 6.527-34.365 6.527-34.365h-68.152v-8.723h100.347c19.943 0 18.282-14.11 18.282-14.11v-67.86zM169.652 233.49c4.946 0 8.967 4.05 8.967 9.073 0 5.012-4.021 9.078-8.967 9.078-4.949 0-8.967-4.066-8.967-9.078 0-5.024 4.018-9.073 8.967-9.073z" fill="url(#python-b)"/>
  </g>
</svg>
